<svg xmlns="http://www.w3.org/2000/svg" viewBox="0 0 686.43 188.95"><defs><style>.cls-1{fill:#161616;}.cls-2{fill:#ce0014;}.cls-3{fill:#f4a519;}.cls-4{fill:#00d1a6;}</style></defs><g id="Layer_2" data-name="Layer 2"><g id="Layer_1-2" data-name="Layer 1"><path class="cls-1" d="M30.08,143.4H2.63V50.52H30.08Z"/><path class="cls-1" d="M83.18,143.4H55.54V50.52H83.18V64c5-9.34,15.72-15.51,26.85-15.51,20.89,0,34,12.93,34,39.38V143.4H116.4V93.88c0-12.53-6.76-18.5-16.11-18.5-9.75,0-17.11,4.77-17.11,18.9Z"/><path class="cls-1" d="M160.15,72.4V50.52h16.91V31l27.85-9V50.52H224V72.4H204.91v33.21c-.2,6.57,2,12.73,12.13,12.73h8.15V143.4H212.26c-26.25,0-35.2-13.72-35.2-38.38V72.4Z"/><path class="cls-1" d="M240.71,96.66c0-29.43,21.68-48.13,48.13-48.13,26.25,0,48.33,18.7,48.33,48.13,0,29.24-22.08,48.33-48.33,48.33C262.39,145,240.71,125.9,240.71,96.66Zm69.21,0c0-12.73-9.35-21.08-21.08-21.08C277.5,75.58,268,83.93,268,96.66c0,12.93,9.55,21.28,20.89,21.28C300.57,117.94,309.92,109.59,309.92,96.66Z"/><path class="cls-1" d="M423.89,143.4V131.87c-4.58,8.55-15.52,13.52-27.25,13.52-23.87,0-44.95-18.69-44.95-48.13,0-29.83,21.08-48.73,44.95-48.73,11.73,0,22.67,4.77,27.25,13.33V0h27.44V143.4ZM401.81,74.59c-11.93,0-21.48,8.55-21.48,22.07,0,13.73,9.74,22.48,21.48,22.48s21.48-9,21.48-22.48C423.29,82.94,413,74.59,401.81,74.59Z"/><path class="cls-1" d="M545.61,132.86c-5.77,8.75-20.09,12.33-27.05,12.33-23.67,0-47.34-18.69-47.34-48.33s23.67-48.33,47.34-48.33c6.17,0,19.49,2.19,27.05,12.33V50.52h27.45V143.4H545.61Zm-22.48-13.92c11.34,0,22.48-8.16,22.48-22.08,0-13.72-11.14-22.08-22.48-22.08-11.73,0-23.27,8.76-23.27,22.08S511.4,118.94,523.13,118.94Z"/><path class="cls-1" d="M629.15,189H599.91l22.27-55.09-35.8-83.34h29.44l20.49,52.71L657,50.52h29.44Z"/><rect class="cls-2" y="0.59" width="33.08" height="33.08" rx="16.54"/><rect class="cls-3" x="53.01" y="0.59" width="33.08" height="33.08" rx="16.54"/><rect class="cls-4" x="104.4" y="0.59" width="33.08" height="33.08" rx="16.54"/></g></g></svg>